<svg xmlns="http://www.w3.org/2000/svg" viewBox="0 0 128 128"><defs><style>.cls-1{fill:#29abe2;}.cls-2{fill:#e6e6e6;}.cls-3{fill:#999;}.cls-4,.cls-8{fill:#006837;}.cls-5,.cls-6{fill:#22b573;}.cls-6,.cls-7,.cls-8{stroke:#006837;stroke-miterlimit:10;}.cls-6,.cls-7{stroke-width:4px;}.cls-7{fill:none;}.cls-9{fill:#ed1c24;}.cls-10{fill:#c1272d;}.cls-11{fill:#fff;}.cls-12{fill:#0071bc;}.cls-13{fill:#b3b3b3;}.cls-14{fill:#f2f2f2;}</style></defs><title>LOGO miGuide</title><g id="Ebene_1" data-name="Ebene 1"><rect class="cls-1" width="128" height="128"/></g><g id="Ebene_8" data-name="Ebene 8"><ellipse class="cls-2" cx="94.15" cy="36.58" rx="7.45" ry="6.55"/><ellipse class="cls-2" cx="111.02" cy="36.58" rx="7.15" ry="6.55"/><ellipse class="cls-2" cx="102.1" cy="28.67" rx="7.94" ry="7.23"/><rect class="cls-2" x="94.15" y="33.95" width="16.87" height="9.19"/><ellipse class="cls-3" cx="10.42" cy="45.47" rx="7.45" ry="6.55"/><ellipse class="cls-3" cx="27.29" cy="45.47" rx="7.15" ry="6.55"/><ellipse class="cls-3" cx="18.36" cy="37.56" rx="7.94" ry="7.23"/><rect class="cls-3" x="10.42" y="42.83" width="16.87" height="9.19"/></g><g id="Ebene_3" data-name="Ebene 3"><path class="cls-4" d="M7250.34,7199a51.06,51.06,0,0,1-102.11,0c0-16,8.69-27.65,11.26-30.91.63-.8,16.39-20.13,39.77-20.15h0C7219.28,7148,7250.34,7166.49,7250.34,7199Z" transform="translate(-7135.5 -7135.5)"/><path class="cls-4" d="M7199.28,7199" transform="translate(-7135.5 -7135.5)"/></g><g id="Ebene_2" data-name="Ebene 2"><circle class="cls-5" cx="63.78" cy="64.13" r="47.29"/><path class="cls-6" d="M7199,7150.38c-16,.19-29.61,26.87-29.67,48.95s13.5,48.8,29.37,49.09c16.1.3,31.23-26.56,31-49.7C7229.51,7176.42,7215,7150.19,7199,7150.38Z" transform="translate(-7135.5 -7135.5)"/><path class="cls-6" d="M7199,7150.38c-16,.19-29.61,26.87-29.67,48.95s13.5,48.8,29.37,49.09c16.1.3,31.23-26.56,31-49.7C7229.51,7176.42,7215,7150.19,7199,7150.38Z" transform="translate(-7135.5 -7135.5)"/></g><g id="Ebene_5" data-name="Ebene 5"><path class="cls-7" d="M7162.23,7166.64a56,56,0,0,0,36.54,14.92,56.76,56.76,0,0,0,40-14.92" transform="translate(-7135.5 -7135.5)"/><path class="cls-7" d="M7237.53,7230.36a56,56,0,0,0-36.68-14.56,56.79,56.79,0,0,0-39.82,15.31" transform="translate(-7135.5 -7135.5)"/><line class="cls-7" x1="15.29" y1="63.51" x2="112.88" y2="63.51"/></g><g id="Ebene_4" data-name="Ebene 4"><rect class="cls-8" x="62.54" y="14.8" width="3.92" height="99.4"/></g><g id="Ebene_6" data-name="Ebene 6"><path class="cls-9" d="M7200.56,7191.88l17.49-26.49,1.4-2.12h-38.9Z" transform="translate(-7135.5 -7135.5)"/><ellipse class="cls-9" cx="64.5" cy="24.01" rx="19.66" ry="18.07"/><polygon class="cls-10" points="65.81 58.78 48 33.83 45.05 27.77 44.84 24.01 45.05 18.69 48.03 14.14 52.12 9.98 55.32 8.03 52.05 12.76 50.17 16.54 49.13 24.01 50.8 29.48 66.7 53.9 65.81 58.78"/><ellipse class="cls-11" cx="65.19" cy="22.91" rx="12.28" ry="10.55"/><ellipse class="cls-12" cx="64.5" cy="22.91" rx="7.09" ry="6.09"/></g><g id="Ebene_7" data-name="Ebene 7"><ellipse class="cls-13" cx="87.05" cy="78.51" rx="7.45" ry="6.55"/><ellipse class="cls-13" cx="103.92" cy="78.51" rx="7.15" ry="6.55"/><ellipse class="cls-13" cx="95" cy="70.6" rx="7.94" ry="7.23"/><rect class="cls-13" x="87.05" y="75.87" width="16.87" height="9.19"/><ellipse class="cls-2" cx="19.76" cy="56.82" rx="7.45" ry="6.55"/><ellipse class="cls-2" cx="36.62" cy="56.82" rx="7.15" ry="6.55"/><ellipse class="cls-2" cx="27.7" cy="48.92" rx="7.94" ry="7.23"/><rect class="cls-2" x="19.76" y="54.19" width="16.87" height="9.19"/><ellipse class="cls-14" cx="66.34" cy="88.37" rx="7.45" ry="6.55"/><ellipse class="cls-14" cx="83.21" cy="88.37" rx="7.15" ry="6.55"/><ellipse class="cls-14" cx="74.29" cy="80.47" rx="7.94" ry="7.23"/><rect class="cls-14" x="66.34" y="85.74" width="16.87" height="9.19"/></g></svg>